<svg width="64" height="64" viewBox="0 0 64 64" fill="none" xmlns="http://www.w3.org/2000/svg">
  <rect x="3" y="3" width="58" height="58" rx="7" fill="#6D4FEF"/>
  <rect x="5" y="5" width="54" height="54" rx="5" fill="url(#bg)"/>
  <path d="M11 47C19 35 23 22 17 9L9 9L9 55H24C19 53 15 50 11 47Z" fill="#F5F1FF" opacity="0.42"/>
  <path d="M52 16C47 25 47 35 55 48L55 9H42C46 10 49 12 52 16Z" fill="#F7F1FF" opacity="0.28"/>
  <path d="M15 13L19 11L21 15L25 17L21 19L19 23L17 19L13 17L17 15L15 13Z" fill="white" opacity="0.85"/>
  <path d="M45 43L48 41L50 44L53 46L50 48L48 51L46 48L43 46L46 44L45 43Z" fill="white" opacity="0.8"/>
  <path d="M9 34C18 31 25 32 33 38C41 44 49 43 56 37" stroke="#D7CCFF" stroke-width="3" opacity="0.65"/>
  <path d="M35.5 16H28.5V48H35.5V16Z" fill="white"/>
  <path d="M27 15H37V20H27V15ZM27 44H37V49H27V44Z" fill="white"/>
  <rect x="6.5" y="6.5" width="51" height="51" rx="4.5" stroke="#BFAEFF" stroke-width="3" opacity="0.95"/>
  <defs>
    <linearGradient id="bg" x1="8" y1="5" x2="56" y2="60" gradientUnits="userSpaceOnUse">
      <stop stop-color="#4531C9"/>
      <stop offset="0.42" stop-color="#8B54FF"/>
      <stop offset="0.7" stop-color="#A55DFF"/>
      <stop offset="1" stop-color="#4D35D8"/>
    </linearGradient>
  </defs>
</svg>
