<svg xmlns="http://www.w3.org/2000/svg" viewBox="0 0 256 256" role="img" aria-label="Maple Note icon">
  <defs>
    <linearGradient id="app-bg" x1="54" y1="26" x2="202" y2="232" gradientUnits="userSpaceOnUse">
      <stop offset="0" stop-color="#fff7df" />
      <stop offset="1" stop-color="#ffe5c7" />
    </linearGradient>
    <linearGradient id="leaf-fill" x1="72" y1="58" x2="176" y2="180" gradientUnits="userSpaceOnUse">
      <stop offset="0" stop-color="#ff7a1a" />
      <stop offset="0.48" stop-color="#ef2b24" />
      <stop offset="1" stop-color="#b50f1c" />
    </linearGradient>
    <linearGradient id="paper-fill" x1="127" y1="112" x2="190" y2="196" gradientUnits="userSpaceOnUse">
      <stop offset="0" stop-color="#fff7e9" />
      <stop offset="1" stop-color="#ffdca8" />
    </linearGradient>
    <linearGradient id="pen-fill" x1="186" y1="122" x2="216" y2="170" gradientUnits="userSpaceOnUse">
      <stop offset="0" stop-color="#ff5b3d" />
      <stop offset="1" stop-color="#9d1321" />
    </linearGradient>
    <filter id="soft-shadow" x="-20%" y="-20%" width="140%" height="145%">
      <feDropShadow dx="0" dy="8" stdDeviation="7" flood-color="#7f1d1d" flood-opacity="0.18" />
    </filter>
  </defs>

  <rect x="18" y="18" width="220" height="220" rx="52" fill="url(#app-bg)" stroke="#ef5a47" stroke-width="5" />
  <g filter="url(#soft-shadow)">
    <path
      d="M70 190c-5 0-9-4-9-9V74c0-5 4-9 9-9h104c5 0 9 4 9 9v107c0 5-4 9-9 9H70Z"
      fill="#fff2d8"
      stroke="#c83b2e"
      stroke-width="4"
    />
    <path d="M68 181h108v13H68c-8 0-14-5-14-12 0-7 6-12 14-12h108v11H68Z" fill="#d22b27" />
    <path d="M69 177h106v8H69c-5 0-8-2-8-4s3-4 8-4Z" fill="#f8d4a1" />
    <path d="M88 181v34l12-9 12 9v-34H88Z" fill="#e12a2e" stroke="#ad1721" stroke-width="3" stroke-linejoin="round" />

    <path
      d="M82 178c-25-10-40-27-45-48 12-7 20-11 32-13-12-14-18-31-17-51 22 1 43 8 61 21 3-10 3-24 0-38 16 4 31 13 43 27 6-15 16-31 30-48 19 23 30 48 35 76 11-11 25-19 43-23 3 21-2 42-14 61 14 3 26 10 35 20-14 16-34 25-58 27l-96 5c-17 1-33-4-49-16Z"
      fill="url(#leaf-fill)"
      stroke="#cc2d27"
      stroke-width="4"
      stroke-linejoin="round"
    />
    <path d="M150 65v105" stroke="#86121d" stroke-width="5" stroke-linecap="round" />
    <path d="M150 116 111 78" stroke="#86121d" stroke-width="5" stroke-linecap="round" />
    <path d="M149 116 178 81" stroke="#86121d" stroke-width="5" stroke-linecap="round" />
    <path d="M131 165 82 104" stroke="#86121d" stroke-width="5" stroke-linecap="round" />
    <path d="M130 165 93 150" stroke="#86121d" stroke-width="5" stroke-linecap="round" />

    <path
      d="M132 176c17-35 41-60 82-69-4 25-19 48-41 67-14 12-27 18-41 21v-19Z"
      fill="url(#paper-fill)"
      stroke="#f5d09d"
      stroke-width="3"
      stroke-linejoin="round"
    />
    <path d="M160 126h38M154 145h43M149 164h42" stroke="#e8bc80" stroke-width="4" stroke-linecap="round" />

    <path d="M178 186c17-13 31-23 45-32" stroke="#e0302c" stroke-width="6" stroke-linecap="round" />
    <path d="M204 151 218 93c1-5 8-6 11-2l10 12c3 4 3 9 0 13l-35 46-13 4 13-15Z" fill="url(#pen-fill)" />
    <path d="M199 158 212 143" stroke="#7f121c" stroke-width="4" stroke-linecap="round" />
    <circle cx="215" cy="150" r="4" fill="#67111a" />
  </g>
</svg>
