<svg xmlns="http://www.w3.org/2000/svg" viewBox="0 0 128 128" role="img" aria-label="Papulatus artifact">
  <defs>
    <linearGradient id="aura" x1="13" x2="115" y1="10" y2="117" gradientUnits="userSpaceOnUse">
      <stop stop-color="#a78bfa"/>
      <stop offset=".55" stop-color="#5ee6ff"/>
      <stop offset="1" stop-color="#22d3ee"/>
    </linearGradient>
    <linearGradient id="body" x1="28" x2="101" y1="25" y2="108" gradientUnits="userSpaceOnUse">
      <stop stop-color="#c4fbff"/>
      <stop offset=".5" stop-color="#50dfff"/>
      <stop offset="1" stop-color="#3b82f6"/>
    </linearGradient>
    <filter id="glow" x="-35%" y="-35%" width="170%" height="170%">
      <feGaussianBlur stdDeviation="3.8" result="blur"/>
      <feColorMatrix in="blur" values="0 0 0 0 0.27 0 0 0 0 0.62 0 0 0 0 1 0 0 0 .92 0"/>
      <feMerge>
        <feMergeNode/>
        <feMergeNode in="SourceGraphic"/>
      </feMerge>
    </filter>
  </defs>
  <path fill="url(#aura)" d="M64 8c31 0 56 25 56 56s-25 56-56 56S8 95 8 64 33 8 64 8Z" opacity=".48"/>
  <g filter="url(#glow)">
    <circle cx="64" cy="63" r="39" fill="url(#body)" stroke="#7f6cff" stroke-width="4"/>
    <rect width="45" height="35" x="42" y="51" fill="#4fc7f4" stroke="#a9fbff" stroke-width="4" rx="8"/>
    <circle cx="55" cy="67" r="4.4" fill="#5168d8"/>
    <circle cx="74" cy="67" r="4.4" fill="#5168d8"/>
    <path stroke="#5168d8" stroke-linecap="round" stroke-width="3.5" d="M58 78h13"/>
    <path fill="#8ff3ff" stroke="#abfbff" stroke-width="3" d="m20 48 16-11 10 14-16 11zM108 48 92 37 82 51l16 11zM20 80l16 11 10-14-16-11zM108 80 92 91 82 77l16-11z"/>
    <path fill="#effeff" opacity=".52" d="M42 38c14-10 34-11 48-2-17 0-29 5-43 16-5 4-11-10-5-14Z"/>
    <circle cx="64" cy="36" r="8" fill="#91f4ff" opacity=".7"/>
  </g>
</svg>
