<svg xmlns="http://www.w3.org/2000/svg" viewBox="0 0 128 128" role="img" aria-label="Zakum artifact">
  <defs>
    <linearGradient id="aura" x1="10" x2="118" y1="9" y2="119" gradientUnits="userSpaceOnUse">
      <stop stop-color="#7dd3fc"/>
      <stop offset=".52" stop-color="#22d3ee"/>
      <stop offset="1" stop-color="#06b6d4"/>
    </linearGradient>
    <linearGradient id="stone" x1="23" x2="106" y1="24" y2="111" gradientUnits="userSpaceOnUse">
      <stop stop-color="#bffcff"/>
      <stop offset=".5" stop-color="#48def8"/>
      <stop offset="1" stop-color="#2989d8"/>
    </linearGradient>
    <filter id="glow" x="-35%" y="-35%" width="170%" height="170%">
      <feGaussianBlur stdDeviation="3.8" result="blur"/>
      <feColorMatrix in="blur" values="0 0 0 0 0.16 0 0 0 0 0.76 0 0 0 0 1 0 0 0 .88 0"/>
      <feMerge>
        <feMergeNode/>
        <feMergeNode in="SourceGraphic"/>
      </feMerge>
    </filter>
  </defs>
  <path fill="url(#aura)" d="M64 7c32 0 58 25 58 56s-26 58-58 58S6 94 6 63 32 7 64 7Z" opacity=".48"/>
  <g filter="url(#glow)">
    <path fill="url(#stone)" stroke="#4adff7" stroke-linejoin="round" stroke-width="4" d="M39 35h50l10 13v47l-14 14H43L29 95V48z"/>
    <path fill="#7defff" stroke="#a9fbff" stroke-width="3" d="M20 41 8 53l15 9 12-13zM108 41l12 12-15 9-12-13zM17 79 5 92l17 6 11-13zM111 79l12 13-17 6-11-13z"/>
    <rect width="41" height="34" x="44" y="52" fill="#4ec6ee" stroke="#a9fbff" stroke-width="4" rx="7"/>
    <path fill="#2f94d8" d="M52 62h25v16H52z" opacity=".48"/>
    <circle cx="56" cy="67" r="4" fill="#5168d8"/>
    <circle cx="73" cy="67" r="4" fill="#5168d8"/>
    <path stroke="#5168d8" stroke-linecap="round" stroke-width="3.5" d="M59 79h10"/>
    <path fill="#eefeff" opacity=".52" d="M42 33c11-8 29-10 42-3-14 2-25 7-39 17-5 4-9-10-3-14Z"/>
  </g>
</svg>
